<svg xmlns="http://www.w3.org/2000/svg" width="512" height="512" preserveAspectRatio="none" style="display:block" viewBox="0 0 2048 2048" id="a0db2af8-7e46-4126-9054-cad69a661800">
  <defs>
    <linearGradient id="Gradient1" x1="767.284" x2="676.61" y1="450.981" y2="457.117" gradientUnits="userSpaceOnUse">
      <stop class="stop0" offset="0" stop-color="#FFCFB8"></stop>
      <stop class="stop1" offset="1" stop-color="#FFCBCE"></stop>
    </linearGradient>
    <linearGradient id="Gradient2" x1="655.555" x2="724.386" y1="1457.41" y2="1276.27" gradientUnits="userSpaceOnUse">
      <stop class="stop0" offset="0" stop-color="#4BEFB6"></stop>
      <stop class="stop1" offset="1" stop-color="#70BBEC"></stop>
    </linearGradient>
  </defs>
  <path fill="#060505" d="M 768.099 855.945 L 811.011 855.945 L 811.011 897.71 L 870.05 897.554 C 875.126 897.516 892.586 896.758 896.528 897.71 L 1024.13 897.71 C 1024.06 883.791 1023.92 869.861 1024.13 855.945 C 1037.9 856.604 1053.12 855.888 1067.05 855.945 C 1068.24 863.317 1066.93 888.036 1067.05 897.71 C 1093.98 899.004 1126.94 894.797 1152.66 897.71 C 1153.5 911.925 1154.4 926.805 1152.66 940.956 L 1238.43 940.956 C 1238.37 947.371 1238.01 957.234 1238.43 963.364 C 1238.4 970.244 1238.09 979.325 1238.43 986.025 C 1252.29 986.435 1267.12 986.112 1281.07 986.025 C 1281.06 1009.72 1279.97 1042.78 1281.07 1065.65 C 1290.73 1065.04 1307.28 1066.02 1314.72 1064.19 L 1314.75 1062.52 L 1313.46 1062.2 C 1278.58 1053.09 1274.6 1014.32 1291.64 998.342 L 1296.22 1005.59 C 1304.31 1001.35 1310.89 1001.92 1319.78 1001.73 L 1318.28 998.94 C 1319.37 998.722 1340.67 1006.49 1342.12 1007.84 C 1338.28 1009.27 1335.02 1009.45 1330.97 1009.94 C 1350.89 1011.62 1344.63 1012.01 1353.32 1015.42 L 1352.73 1016.73 C 1350.09 1017.1 1350.06 1016.87 1347.45 1016.07 L 1345.51 1016.68 C 1354.24 1019.72 1361.32 1019.04 1365.59 1029.94 C 1366.6 1032.54 1362.19 1039.7 1368.3 1035.74 C 1373.39 1037.02 1390.8 1076.15 1409.88 1066.99 C 1415.61 1066.16 1445.85 1066.92 1452.86 1066.99 L 1455.05 1066.74 C 1457.38 1064.2 1456.8 1060.65 1456.96 1056.61 L 1456.96 986.025 L 1502.87 986.025 L 1502.87 983.359 C 1506.64 987.697 1537.11 985.674 1545.07 986.025 C 1556.26 987.135 1576.74 985.93 1588.98 986.025 L 1588.98 1025.02 L 1588.98 1025.02 C 1603.19 1025.97 1617.55 1024.91 1631.85 1025.02 C 1633.36 1036.57 1633.73 1096.96 1631.85 1109.85 C 1618.3 1110.69 1602.72 1110.09 1588.98 1109.85 C 1585.18 1157.74 1588.01 1231.28 1588.98 1279.99 L 1577.38 1279.99 C 1570.35 1280.24 1543.56 1278.06 1540.7 1279.99 C 1540.83 1308.11 1541.01 1336.72 1540.7 1364.82 L 1497.7 1364.82 C 1498.43 1380.08 1498.72 1391.5 1497.7 1406.96 C 1489.44 1406.91 1461.54 1406.18 1454.98 1406.96 C 1454.37 1420.89 1453.5 1435.83 1454.98 1449.65 C 1469.17 1449.91 1483.5 1449.73 1497.7 1449.65 C 1497.83 1461.88 1497.8 1473.91 1497.7 1486.14 C 1498.25 1490.39 1497.51 1490.29 1499.87 1492.76 L 1505.53 1494.03 L 1540.7 1494.03 L 1540.7 1708.85 L 1283 1708.85 L 1283 1750.51 L 383.919 1750.51 L 383.919 1708.85 L 341.743 1708.85 C 341.455 1700.27 341.158 1693.13 341.743 1684.52 C 341.335 1678.54 341.665 1670.29 341.743 1664.12 C 327.933 1663.04 312.867 1663.58 299.034 1664.12 C 299.048 1624.33 297.669 1575.25 299.034 1536.02 C 301.159 1524.16 300.532 1505.81 299.034 1494.03 C 298.346 1481.53 299.626 1464.28 299.034 1449.65 C 313.533 1449.89 327.26 1450.1 341.743 1449.65 C 341.016 1436.04 340.332 1420.5 341.743 1406.96 C 368.371 1406.93 401.098 1408.01 427.009 1406.96 L 427.009 1322.63 C 412.562 1322.23 398.368 1322.46 383.919 1322.63 C 381.559 1267.29 379.367 1164.82 383.919 1109.85 C 393.664 1108.99 416.453 1109.78 427.009 1109.85 C 427.169 1098.98 425.587 1079.19 427.009 1069.89 C 427.921 1063.79 504.581 1067.03 515.381 1067.03 L 681.725 1066.99 L 681.725 983.359 C 695.834 983.607 710.087 982.902 724.012 983.359 L 724.012 1066.99 L 768.099 1066.99 L 768.099 983.359 L 811.011 983.359 L 811.011 942.901 L 768.099 942.901 C 767.989 930.235 769.548 909.653 768.099 897.71 L 768.099 897.71 L 768.099 855.945 z M 1323.27 1109.85 L 1342.37 1109.85 C 1349.02 1107.82 1358.63 1110.07 1363.61 1106.8 C 1361.24 1105.51 1350.84 1105.78 1350.35 1105.19 C 1343.37 1096.83 1330.16 1083.6 1324.01 1075.48 L 1323.27 1074.48 L 1323.27 1109.85 z"></path>
  <path fill="#060505" d="M 768.099 855.945 L 811.011 855.945 L 811.011 897.71 L 870.05 897.554 C 875.126 897.516 892.586 896.758 896.528 897.71 L 1024.13 897.71 C 1024.06 883.791 1023.92 869.861 1024.13 855.945 C 1037.9 856.604 1053.12 855.888 1067.05 855.945 C 1068.24 863.317 1066.93 888.036 1067.05 897.71 C 1093.98 899.004 1126.94 894.797 1152.66 897.71 C 1153.5 911.925 1154.4 926.805 1152.66 940.956 L 1238.43 940.956 C 1238.37 947.371 1238.01 957.234 1238.43 963.364 C 1238.4 970.244 1238.09 979.325 1238.43 986.025 C 1214.35 984.483 1178.43 986.625 1152.66 986.025 C 1142.64 982.409 1118.88 983.326 1107.04 983.359 L 1107.04 1025.02 C 1099.27 1025.09 1073.6 1025.82 1067.05 1025.02 L 1067.05 1025.02 L 1067.05 983.359 C 1013.04 983.258 949.939 981.842 896.528 983.359 L 896.528 1025.02 C 896.53 1067.16 896.993 1110.04 896.528 1152.1 L 853.393 1152.1 L 853.393 1152.1 L 772.679 1152.16 C 757.401 1152.25 739.035 1152.94 724.012 1152.1 L 724.012 1152.1 L 681.725 1152.1 L 681.725 1152.1 C 655.869 1151.1 623.093 1152.09 596.675 1152.1 L 596.675 1109.85 C 593.655 1109.24 557.787 1109.8 551.86 1109.81 L 427.009 1109.85 C 426.791 1096.56 426.945 1083.19 427.009 1069.89 C 427.921 1063.79 504.581 1067.03 515.381 1067.03 L 681.725 1066.99 L 681.725 983.359 C 695.834 983.607 710.087 982.902 724.012 983.359 L 724.012 1066.99 L 768.099 1066.99 L 768.099 983.359 L 811.011 983.359 L 811.011 942.901 L 768.099 942.901 C 767.989 930.235 769.548 909.653 768.099 897.71 L 768.099 897.71 L 768.099 855.945 z"></path>
  <path fill="#F0974C" d="M 768.099 855.945 L 811.011 855.945 L 811.011 897.71 L 870.05 897.554 C 875.126 897.516 892.586 896.758 896.528 897.71 L 1024.13 897.71 C 1024.06 883.791 1023.92 869.861 1024.13 855.945 C 1037.9 856.604 1053.12 855.888 1067.05 855.945 C 1068.24 863.317 1066.93 888.036 1067.05 897.71 C 1093.98 899.004 1126.94 894.797 1152.66 897.71 C 1153.5 911.925 1154.4 926.805 1152.66 940.956 L 811.011 940.956 C 810.962 933.318 811.979 903.525 811.011 897.71 C 797.946 897.881 780.145 896.325 768.099 897.71 L 768.099 855.945 z"></path>
  <path fill="#FBD59F" d="M 1024.13 855.945 C 1037.9 856.604 1053.12 855.888 1067.05 855.945 C 1068.24 863.317 1066.93 888.036 1067.05 897.71 C 1059.91 896.89 1032.43 897.573 1024.13 897.71 C 1024.06 883.791 1023.92 869.861 1024.13 855.945 z"></path>
  <path fill="#CB570D" d="M 896.528 1025.02 C 896.53 1067.16 896.993 1110.04 896.528 1152.1 L 853.393 1152.1 C 850.909 1141.51 852.52 1035.61 853.393 1025.02 L 896.528 1025.02 z"></path>
  <path fill="#2A5FC1" d="M 596.675 1109.85 L 681.725 1109.85 C 681.931 1124.14 682.108 1137.83 681.725 1152.1 L 681.725 1152.1 C 655.869 1151.1 623.093 1152.09 596.675 1152.1 L 596.675 1109.85 z"></path>
  <path fill="#EC7913" d="M 768.099 1066.99 L 811.011 1066.99 L 811.011 1109.85 L 768.099 1109.85 L 768.099 1066.99 z"></path>
  <path fill="#1B387F" d="M 681.725 1109.85 C 694.882 1109.82 711.11 1109.33 724.012 1109.85 C 724.062 1117.08 724.787 1146.43 724.012 1152.1 L 724.012 1152.1 L 681.725 1152.1 C 682.108 1137.83 681.931 1124.14 681.725 1109.85 z"></path>
  <path fill="#EC7913" d="M 896.528 983.359 C 949.939 981.842 1013.04 983.258 1067.05 983.359 L 1067.05 1025.02 L 1067.05 1025.02 C 1073.6 1025.82 1099.27 1025.09 1107.04 1025.02 L 1107.04 983.359 C 1118.88 983.326 1142.64 982.409 1152.66 986.025 C 1150.16 1023.26 1152.18 1072.07 1152.66 1109.85 L 1152.66 1194.52 L 1152.66 1236.97 L 1109.14 1236.97 L 1109.14 1236.97 C 1106.11 1236.29 1072.73 1236.94 1067.05 1236.97 L 896.528 1236.97 C 896.199 1208.85 896.483 1180.26 896.528 1152.1 C 896.993 1110.04 896.53 1067.16 896.528 1025.02 L 896.528 983.359 z"></path>
  <path fill="#F8BA7B" d="M 981.145 1066.99 L 1024.13 1066.99 L 1067.05 1066.99 C 1067.09 1081.59 1074.13 1110.76 1060.52 1109.85 C 1051.37 1111.12 1030.34 1110 1025.27 1111.61 L 1024.13 1114.69 C 1024.35 1119.65 1026.35 1149.62 1024.63 1152.15 L 1022.37 1152.1 C 1002.53 1156.03 963.095 1151.98 939.124 1152.1 L 939.124 1109.85 C 944.824 1109.76 979.247 1110.94 981.145 1109.85 C 980.76 1096.18 981.128 1080.8 981.145 1066.99 z"></path>
  <path fill="#F2EBA2" d="M 1024.13 1066.99 L 1067.05 1066.99 C 1067.09 1081.59 1074.13 1110.76 1060.52 1109.85 C 1049.91 1109.35 1035.05 1109.83 1024.13 1109.85 C 1024.71 1098.2 1025.46 1086.06 1024.13 1074.48 L 1024.13 1066.99 z"></path>
  <path fill="#EC7913" d="M 981.145 1066.99 L 1024.13 1066.99 L 1024.13 1074.48 C 1023.65 1086.28 1023.96 1098.04 1024.13 1109.85 C 1018.25 1109.86 983.224 1111 981.145 1109.85 C 980.76 1096.18 981.128 1080.8 981.145 1066.99 z"></path>
  <path fill="#F8F8F7" d="M 981.145 1109.85 C 990.552 1111 1016.05 1108.11 1023.54 1112.14 L 1024.13 1114.69 C 1024.35 1119.65 1026.35 1149.62 1024.63 1152.15 L 1022.37 1152.1 L 981.145 1152.1 L 981.145 1109.85 z"></path>
  <path fill="#CB570D" d="M1067.05 1025.02 1067.05 1025.02C1068.62 1041.91 1069.44 1050.48 1067.05 1066.99L1024.13 1066.99 981.145 1066.99 939.124 1066.99C939.313 1052.93 939.241 1039.08 939.124 1025.02 979.868 1023.93 1027.46 1028.19 1067.05 1025.02zM1067.05 1194.52C1088.58 1194.71 1128.28 1192.62 1148.38 1194.52L1152.66 1194.52 1152.66 1236.97 1109.14 1236.97 1109.14 1236.97C1106.11 1236.29 1072.73 1236.94 1067.05 1236.97 1066.41 1224.87 1067.02 1207.06 1067.05 1194.52z"></path>
  <path fill="#060505" d="M 1148.38 1194.52 L 1152.66 1194.52 L 1152.66 1236.97 L 1109.14 1236.97 L 1109.14 1194.52 C 1122.16 1194.61 1135.39 1194.85 1148.38 1194.52 z"></path>
  <path fill="#F2EBA2" d="M 939.124 1066.99 L 981.145 1066.99 C 981.128 1080.8 980.76 1096.18 981.145 1109.85 C 979.247 1110.94 944.824 1109.76 939.124 1109.85 L 939.124 1066.99 z"></path>
  <path fill="#F8F8F7" d="M 596.675 1152.1 C 623.093 1152.09 655.869 1151.1 681.725 1152.1 L 681.725 1152.1 L 724.012 1152.1 C 725.693 1155.38 723.868 1186.86 724.012 1194.52 C 732.678 1194.48 761.143 1193.6 768.099 1194.52 L 768.099 1322.63 L 811.011 1322.63 C 812.033 1334.77 810.906 1352 811.011 1364.82 L 596.675 1364.82 L 596.675 1338.72 L 596.675 1322.63 C 589.478 1321.93 575.603 1322.51 567.887 1322.53 L 512.39 1322.63 C 511.644 1266.95 515.125 1207.12 512.39 1152.1 C 514.498 1151.27 587.579 1152.1 596.675 1152.1 z"></path>
  <path fill="#90C1E8" d="M 681.725 1152.1 L 724.012 1152.1 C 725.693 1155.38 723.868 1186.86 724.012 1194.52 C 709.489 1194.61 696.461 1193.81 681.725 1194.52 C 682.217 1188.43 682.834 1155.9 681.725 1152.1 L 681.725 1152.1 z"></path>
  <path fill="#060505" d="M555.795 1194.52 596.675 1194.52 596.675 1236.97 555.795 1236.97 555.795 1194.52zM596.675 1236.97 635.522 1236.97C635.567 1245.96 636.515 1272.83 635.522 1279.99 622.967 1280 609.121 1280.32 596.675 1279.99L596.675 1236.97z"></path>
  <path fill="#90C1E8" d="M 1152.66 986.025 C 1178.43 986.625 1214.35 984.483 1238.43 986.025 C 1252.29 986.435 1267.12 986.112 1281.07 986.025 C 1281.06 1009.72 1279.97 1042.78 1281.07 1065.65 L 1281.07 1066.99 L 1281.07 1109.85 C 1290.12 1109.84 1316.2 1111.1 1323.27 1109.85 L 1323.27 1236.97 L 1281.07 1236.97 C 1279.98 1242.44 1281.17 1272.01 1281.07 1279.99 L 1238.43 1279.99 L 1238.43 1279.99 C 1239.72 1275.16 1238.47 1244.29 1238.43 1236.97 L 1152.66 1236.97 L 1152.66 1194.52 L 1152.66 1109.85 C 1152.18 1072.07 1150.16 1023.26 1152.66 986.025 z"></path>
  <path fill="#F8F8F7" d="M 1152.66 986.025 C 1178.43 986.625 1214.35 984.483 1238.43 986.025 C 1252.29 986.435 1267.12 986.112 1281.07 986.025 C 1281.06 1009.72 1279.97 1042.78 1281.07 1065.65 L 1281.07 1066.99 L 1238.43 1066.99 L 1238.43 1109.85 L 1194.98 1109.85 C 1180.93 1108.98 1166.73 1109.51 1152.66 1109.85 C 1152.18 1072.07 1150.16 1023.26 1152.66 986.025 z"></path>
  <path fill="#060505" d="M 1238.43 986.025 C 1252.29 986.435 1267.12 986.112 1281.07 986.025 C 1281.06 1009.72 1279.97 1042.78 1281.07 1065.65 L 1281.07 1066.99 L 1238.43 1066.99 L 1238.43 986.025 z"></path>
  <path fill="#717589" d="M 1323.27 1109.85 L 1323.27 1236.97 L 1281.07 1236.97 C 1279.98 1242.44 1281.17 1272.01 1281.07 1279.99 L 1238.43 1279.99 L 1238.43 1279.99 C 1239.72 1275.16 1238.47 1244.29 1238.43 1236.97 C 1251.26 1237 1268.62 1237.58 1281.07 1236.97 L 1281.07 1194.52 C 1267.83 1194.04 1251.88 1194.5 1238.43 1194.52 L 1238.43 1152.1 L 1281.07 1152.1 C 1280.44 1137.01 1280.25 1124.86 1281.07 1109.85 C 1290.12 1109.84 1316.2 1111.1 1323.27 1109.85 z"></path>
  <path fill="#060505" d="M1152.66 1109.85C1166.73 1109.51 1180.93 1108.98 1194.98 1109.85L1194.98 1194.52C1181.79 1194.51 1165.59 1194.02 1152.66 1194.52L1152.66 1109.85zM1502.87 986.025 1502.87 983.359C1506.64 987.697 1537.11 985.674 1545.07 986.025 1556.26 987.135 1576.74 985.93 1588.98 986.025L1588.98 1025.02 1588.98 1025.02C1603.19 1025.97 1617.55 1024.91 1631.85 1025.02 1633.36 1036.57 1633.73 1096.96 1631.85 1109.85 1618.3 1110.69 1602.72 1110.09 1588.98 1109.85 1585.18 1157.74 1588.01 1231.28 1588.98 1279.99L1577.38 1279.99C1570.35 1280.24 1543.56 1278.06 1540.7 1279.99L1540.7 1279.99C1541.17 1266.18 1540.79 1250.9 1540.7 1236.97L1454.98 1236.97C1455.87 1231.31 1455.02 1202.24 1454.98 1194.52L1454.98 1152.1 1454.98 1109.85 1454.98 1066.99 1452.86 1066.99 1455.05 1066.74C1457.38 1064.2 1456.8 1060.65 1456.96 1056.61L1456.96 986.025 1502.87 986.025z"></path>
  <path fill="#F0974C" d="M 1502.87 986.025 L 1502.87 983.359 C 1506.64 987.697 1537.11 985.674 1545.07 986.025 C 1556.26 987.135 1576.74 985.93 1588.98 986.025 L 1588.98 1025.02 L 1588.98 1025.02 C 1603.19 1025.97 1617.55 1024.91 1631.85 1025.02 C 1633.36 1036.57 1633.73 1096.96 1631.85 1109.85 C 1618.3 1110.69 1602.72 1110.09 1588.98 1109.85 L 1588.98 1109.85 C 1577.59 1110.75 1553.87 1110.07 1541.97 1109.85 L 1541.97 1066.99 C 1535.89 1065.44 1465.16 1067.02 1454.98 1066.99 L 1452.86 1066.99 L 1455.05 1066.74 C 1457.38 1064.2 1456.8 1060.65 1456.96 1056.61 L 1456.96 986.025 L 1502.87 986.025 z"></path>
  <path fill="#060505" d="M 1456.96 986.025 L 1502.87 986.025 L 1502.87 1025.02 L 1502.87 1025.02 L 1541.97 1025.02 C 1544.13 1042.61 1543.57 1049.69 1541.97 1066.99 L 1541.97 1066.99 C 1535.89 1065.44 1465.16 1067.02 1454.98 1066.99 L 1452.86 1066.99 L 1455.05 1066.74 C 1457.38 1064.2 1456.8 1060.65 1456.96 1056.61 L 1456.96 986.025 z"></path>
  <path fill="#EC7913" d="M 1502.87 1025.02 L 1541.97 1025.02 C 1544.13 1042.61 1543.57 1049.69 1541.97 1066.99 L 1541.97 1066.99 C 1535.89 1065.44 1465.16 1067.02 1454.98 1066.99 L 1452.86 1066.99 L 1455.05 1066.74 C 1457.38 1064.2 1456.8 1060.65 1456.96 1056.61 C 1456.95 1076.06 1480.98 1067.16 1502.87 1066.99 C 1502.79 1053.15 1502.52 1038.81 1502.87 1025.02 z"></path>
  <path fill="#060505" d="M 1588.98 1025.02 C 1603.19 1025.97 1617.55 1024.91 1631.85 1025.02 C 1633.36 1036.57 1633.73 1096.96 1631.85 1109.85 C 1618.3 1110.69 1602.72 1110.09 1588.98 1109.85 L 1588.98 1109.85 C 1589.74 1099.73 1589.19 1077.77 1588.98 1066.99 L 1588.98 1025.02 z"></path>
  <path fill="#F8BA7B" d="M 1502.87 986.025 L 1502.87 983.359 C 1506.64 987.697 1537.11 985.674 1545.07 986.025 C 1556.26 987.135 1576.74 985.93 1588.98 986.025 L 1588.98 1025.02 C 1561.15 1026.37 1531.75 1023.84 1502.87 1025.02 L 1502.87 986.025 z"></path>
  <path fill="#90481D" d="M 1541.97 1066.99 C 1552.99 1066.91 1580.42 1067.99 1588.98 1066.99 C 1589.19 1077.77 1589.74 1099.73 1588.98 1109.85 C 1577.59 1110.75 1553.87 1110.07 1541.97 1109.85 L 1541.97 1066.99 L 1541.97 1066.99 z"></path>
  <path fill="#F8BA7B" d="M 1454.98 1066.99 C 1465.16 1067.02 1535.89 1065.44 1541.97 1066.99 L 1541.97 1109.85 L 1541.97 1177.69 C 1541.34 1183.7 1540.88 1188.46 1540.7 1194.52 C 1514.83 1195.74 1481.72 1194.44 1454.98 1194.52 L 1454.98 1152.1 L 1454.98 1109.85 L 1454.98 1066.99 z"></path>
  <path fill="#EC7913" d="M 1454.98 1109.85 L 1499.8 1109.85 C 1499.74 1123.88 1499.56 1138.09 1499.8 1152.1 L 1454.98 1152.1 L 1454.98 1109.85 z"></path>
  <path fill="#90481D" d="M 1540.7 1194.52 C 1540.88 1188.46 1541.34 1183.7 1541.97 1177.69 C 1542.46 1211.36 1541.8 1246.1 1541.97 1279.99 C 1555.83 1278.95 1563.62 1278.68 1577.38 1279.99 C 1570.35 1280.24 1543.56 1278.06 1540.7 1279.99 L 1540.7 1279.99 C 1541.17 1266.18 1540.79 1250.9 1540.7 1236.97 L 1454.98 1236.97 C 1455.87 1231.31 1455.02 1202.24 1454.98 1194.52 C 1481.72 1194.44 1514.83 1195.74 1540.7 1194.52 z"></path>
  <path fill="#F8F8F7" d="M 1281.07 1065.65 C 1290.73 1065.04 1307.28 1066.02 1314.72 1064.19 L 1314.75 1062.52 L 1313.46 1062.2 C 1278.58 1053.09 1274.6 1014.32 1291.64 998.342 L 1296.22 1005.59 C 1304.31 1001.35 1310.89 1001.92 1319.78 1001.73 L 1318.28 998.94 C 1319.37 998.722 1340.67 1006.49 1342.12 1007.84 C 1338.28 1009.27 1335.02 1009.45 1330.97 1009.94 C 1350.89 1011.62 1344.63 1012.01 1353.32 1015.42 L 1352.73 1016.73 C 1350.09 1017.1 1350.06 1016.87 1347.45 1016.07 L 1345.51 1016.68 C 1354.24 1019.72 1361.32 1019.04 1365.59 1029.94 C 1366.6 1032.54 1362.19 1039.7 1368.3 1035.74 C 1373.39 1037.02 1390.8 1076.15 1409.88 1066.99 C 1415.61 1066.16 1445.85 1066.92 1452.86 1066.99 L 1454.98 1066.99 L 1454.98 1109.85 L 1454.98 1152.1 L 1454.98 1194.52 C 1455.02 1202.24 1455.87 1231.31 1454.98 1236.97 C 1454.53 1250.86 1454.89 1266 1454.98 1279.99 C 1440.39 1280.1 1424.4 1280.52 1409.88 1279.99 C 1409.21 1268.25 1409.3 1248.73 1409.88 1236.97 L 1366.7 1236.97 C 1367.51 1229.06 1366.78 1205.75 1366.77 1196.55 L 1366.7 1109.85 L 1342.37 1109.85 C 1349.02 1107.82 1358.63 1110.07 1363.61 1106.8 C 1361.24 1105.51 1350.84 1105.78 1350.35 1105.19 C 1343.37 1096.83 1330.16 1083.6 1324.01 1075.48 L 1323.27 1074.48 L 1323.27 1109.85 C 1316.2 1111.1 1290.12 1109.84 1281.07 1109.85 L 1281.07 1066.99 L 1281.07 1065.65 z"></path>
  <path fill="#060505" d="M 1409.88 1066.99 C 1415.61 1066.16 1445.85 1066.92 1452.86 1066.99 L 1454.98 1066.99 L 1454.98 1109.85 L 1454.98 1152.1 L 1454.98 1194.52 C 1455.02 1202.24 1455.87 1231.31 1454.98 1236.97 C 1454.53 1250.86 1454.89 1266 1454.98 1279.99 C 1440.39 1280.1 1424.4 1280.52 1409.88 1279.99 C 1409.21 1268.25 1409.3 1248.73 1409.88 1236.97 C 1410.57 1235.46 1409.81 1092.48 1409.88 1077.68 L 1409.88 1066.99 z"></path>
  <path fill="#723816" d="M 1409.88 1236.97 C 1410.57 1235.46 1409.81 1092.48 1409.88 1077.68 C 1412.41 1098.87 1409.89 1127.42 1409.9 1149.35 L 1409.94 1208.64 C 1409.95 1215.55 1410.46 1230.75 1409.88 1236.97 C 1424.09 1237.53 1440.81 1238.09 1454.98 1236.97 C 1454.53 1250.86 1454.89 1266 1454.98 1279.99 C 1440.39 1280.1 1424.4 1280.52 1409.88 1279.99 C 1409.21 1268.25 1409.3 1248.73 1409.88 1236.97 z"></path>
  <path fill="#060505" d="M 1281.07 1066.99 C 1292.56 1066.94 1324.25 1061.66 1323.27 1074.48 L 1323.27 1109.85 C 1316.2 1111.1 1290.12 1109.84 1281.07 1109.85 L 1281.07 1066.99 z"></path>
  <path fill="#2A5FC1" d="M 427.009 1069.89 C 426.945 1083.19 426.791 1096.56 427.009 1109.85 L 551.86 1109.81 C 557.787 1109.8 593.655 1109.24 596.675 1109.85 L 596.675 1152.1 C 587.579 1152.1 514.498 1151.27 512.39 1152.1 C 515.125 1207.12 511.644 1266.95 512.39 1322.63 L 512.39 1322.63 C 498.88 1321.84 482.278 1323.79 469.29 1322.63 L 469.29 1322.63 L 427.009 1322.63 L 427.009 1109.85 C 427.169 1098.98 425.587 1079.19 427.009 1069.89 z"></path>
  <path fill="#6BDDDF" d="M 469.29 1152.1 L 512.39 1152.1 L 512.39 1152.1 C 515.125 1207.12 511.644 1266.95 512.39 1322.63 L 512.39 1322.63 C 498.88 1321.84 482.278 1323.79 469.29 1322.63 L 469.29 1152.1 z"></path>
  <path fill="#90C1E8" d="M 512.39 1109.85 C 539.08 1109.76 570.388 1110.82 596.675 1109.85 L 596.675 1152.1 C 587.579 1152.1 514.498 1151.27 512.39 1152.1 L 512.39 1152.1 C 513.208 1143.2 512.432 1119.83 512.39 1109.85 z"></path>
  <path fill="#2A5FC1" d="M 724.012 1152.1 C 739.035 1152.94 757.401 1152.25 772.679 1152.16 L 853.393 1152.1 L 853.453 1266.09 C 853.471 1277.24 854.355 1309.23 853.393 1318.72 L 854.487 1321.68 C 861.278 1323.86 887.827 1322.49 896.528 1322.63 C 897.409 1349.58 896.46 1379.62 896.528 1406.96 L 853.393 1406.96 C 853.295 1380.3 854.535 1348.57 853.393 1322.63 L 811.011 1322.63 L 768.099 1322.63 L 768.099 1194.52 C 761.143 1193.6 732.678 1194.48 724.012 1194.52 C 723.868 1186.86 725.693 1155.38 724.012 1152.1 L 724.012 1152.1 z"></path>
  <path fill="#90C1E8" d="M 768.099 1194.52 C 782.083 1195.32 796.897 1194.44 811.011 1194.52 L 810.927 1281.1 C 810.917 1291.59 810.244 1312.91 811.011 1322.63 L 768.099 1322.63 L 768.099 1194.52 z"></path>
  <path fill="url(#Gradient2)" d="M 512.39 1322.63 L 567.887 1322.53 C 575.603 1322.51 589.478 1321.93 596.675 1322.63 L 596.675 1338.72 L 596.675 1364.82 L 811.011 1364.82 C 810.906 1352 812.033 1334.77 811.011 1322.63 L 853.393 1322.63 C 854.535 1348.57 853.295 1380.3 853.393 1406.96 L 512.39 1406.96 L 512.39 1364.82 L 512.39 1322.63 L 512.39 1322.63 z"></path>
  <path fill="#6EFE2E" d="M 512.39 1322.63 L 567.887 1322.53 C 575.603 1322.51 589.478 1321.93 596.675 1322.63 L 596.675 1338.72 C 596.42 1347.82 596.41 1355.71 596.675 1364.82 C 577.587 1366.17 531.253 1366.55 512.39 1364.82 L 512.39 1322.63 L 512.39 1322.63 z"></path>
  <path fill="#723816" d="M 1454.98 1236.97 L 1540.7 1236.97 C 1540.79 1250.9 1541.17 1266.18 1540.7 1279.99 L 1540.7 1279.99 C 1540.83 1308.11 1541.01 1336.72 1540.7 1364.82 L 1497.7 1364.82 C 1498.43 1380.08 1498.72 1391.5 1497.7 1406.96 C 1489.44 1406.91 1461.54 1406.18 1454.98 1406.96 L 1454.98 1406.96 L 1409.88 1406.96 C 1407.51 1386.89 1407.99 1310.44 1409.88 1290.63 L 1409.88 1279.99 C 1424.4 1280.52 1440.39 1280.1 1454.98 1279.99 C 1454.89 1266 1454.53 1250.86 1454.98 1236.97 z"></path>
  <path fill="#F8BA7B" d="M 1454.98 1236.97 L 1540.7 1236.97 C 1540.79 1250.9 1541.17 1266.18 1540.7 1279.99 L 1497.7 1279.99 L 1497.7 1322.63 C 1472.57 1324.59 1434.89 1323.63 1409.88 1322.63 C 1409.35 1312.17 1410.2 1301.33 1409.88 1290.63 L 1409.88 1279.99 C 1424.4 1280.52 1440.39 1280.1 1454.98 1279.99 C 1454.89 1266 1454.53 1250.86 1454.98 1236.97 z"></path>
  <path fill="#060505" d="M 1497.7 1279.99 L 1540.7 1279.99 L 1540.7 1279.99 C 1540.83 1308.11 1541.01 1336.72 1540.7 1364.82 L 1497.7 1364.82 C 1498.43 1380.08 1498.72 1391.5 1497.7 1406.96 C 1489.44 1406.91 1461.54 1406.18 1454.98 1406.96 L 1454.98 1406.96 C 1455.7 1395.61 1455.02 1376.74 1454.98 1364.82 C 1469.22 1364.89 1483.5 1364.1 1497.7 1364.82 L 1497.7 1322.63 L 1497.7 1279.99 z"></path>
  <path fill="#B7B5B5" d="M 1152.66 1236.97 L 1238.43 1236.97 C 1238.47 1244.29 1239.72 1275.16 1238.43 1279.99 L 1238.43 1279.99 L 1238.43 1322.63 L 1109.14 1322.63 L 1109.14 1322.63 C 1089.17 1322.6 1056.16 1325.34 1037.46 1322.63 C 1055.26 1321.38 1089.97 1322.51 1109.14 1322.63 L 1109.14 1236.97 L 1109.14 1236.97 L 1152.66 1236.97 z"></path>
  <path fill="#717589" d="M 1238.43 1279.99 L 1238.43 1279.99 L 1238.43 1322.63 L 1109.14 1322.63 C 1112.48 1321.47 1145.82 1322.61 1152.66 1322.63 C 1153.51 1313.21 1152.73 1290.14 1152.66 1279.99 L 1238.43 1279.99 z"></path>
  <path fill="#CB570D" d="M 896.528 1236.97 L 1067.05 1236.97 L 1067.05 1279.99 L 896.528 1279.99 L 896.528 1236.97 z"></path>
  <path fill="#FBD59F" d="M 1022.37 1322.63 C 1027.24 1322.42 1032.55 1322.58 1037.46 1322.63 C 1056.16 1325.34 1089.17 1322.6 1109.14 1322.63 L 1109.14 1364.82 L 1067.05 1364.82 C 1067.04 1378.2 1066.63 1393.78 1067.05 1406.96 L 981.145 1406.96 L 981.145 1376.21 C 981.45 1373.02 981.207 1368.14 981.145 1364.82 L 1022.37 1364.82 L 1022.37 1322.63 z"></path>
  <path fill="#DDF61B" d="M 341.743 1449.65 C 355.572 1449.67 370.155 1449.92 383.919 1449.65 L 383.919 1494.03 C 369.675 1493.83 355.979 1493.67 341.743 1494.03 L 341.743 1536.02 L 299.034 1536.02 C 301.159 1524.16 300.532 1505.81 299.034 1494.03 C 312.209 1494.02 328.877 1493.51 341.743 1494.03 L 341.743 1449.65 z"></path>
  <path fill="#2A5FC1" d="M 469.29 1322.63 C 482.278 1323.79 498.88 1321.84 512.39 1322.63 L 512.39 1364.82 L 512.39 1406.96 L 469.29 1406.96 C 469.343 1379.07 469.714 1350.45 469.29 1322.63 L 469.29 1322.63 z"></path>
  <path fill="#EC7913" d="M 1409.88 1491.09 C 1434.42 1491.11 1474.75 1489.57 1497.7 1491.09 C 1489.78 1492.12 1464.6 1491.15 1454.98 1491.09 C 1453.32 1509.67 1453.23 1517.29 1454.98 1536.02 L 1409.88 1536.02 C 1409.81 1521.09 1409.61 1506 1409.88 1491.09 z"></path>
  <path fill="#FBD59F" d="M 1497.7 1491.09 L 1497.7 1486.14 C 1498.25 1490.39 1497.51 1490.29 1499.87 1492.76 L 1505.53 1494.03 C 1490.27 1493.47 1497.83 1519.3 1497.7 1536.02 L 1454.98 1536.02 C 1453.23 1517.29 1453.32 1509.67 1454.98 1491.09 C 1464.6 1491.15 1489.78 1492.12 1497.7 1491.09 z"></path>
  <path fill="#CB570D" d="M 939.124 1322.63 L 981.145 1322.63 L 981.145 1364.82 C 981.207 1368.14 981.45 1373.02 981.145 1376.21 C 980.17 1356.48 961.391 1364.68 939.124 1364.82 C 938.014 1349.01 938.259 1338.18 939.124 1322.63 z"></path>
  <path fill="#F8BA7B" d="M 341.743 1578.82 L 383.919 1578.82 L 383.919 1621.9 L 341.743 1621.9 L 341.743 1578.82 z"></path>
  <path fill="#90481D" d="M 1109.14 1322.63 L 1109.14 1322.63 L 1109.14 1406.96 L 1067.05 1406.96 C 1066.63 1393.78 1067.04 1378.2 1067.05 1364.82 L 1109.14 1364.82 L 1109.14 1322.63 z"></path>
  <path fill="#CB570D" d="M 383.919 1621.9 L 383.919 1664.12 C 368.581 1663.13 357.347 1663.14 341.743 1664.12 C 341.887 1669.82 342.387 1679.15 341.743 1684.52 C 341.335 1678.54 341.665 1670.29 341.743 1664.12 L 341.743 1621.9 L 383.919 1621.9 z"></path>
  <path fill="#B7B5B5" d="M 596.675 1536.02 L 677.716 1536.08 C 690.109 1536.16 712.448 1537.12 724.012 1536.02 L 981.145 1536.02 L 981.145 1542.24 L 981.145 1621.9 L 981.145 1664.12 C 986.048 1664.06 992.435 1663.8 997.209 1664.12 C 990.61 1664.56 987.776 1664.59 981.145 1664.12 C 981.168 1675.77 981.943 1698.09 981.145 1708.85 L 681.725 1708.85 L 555.795 1708.85 L 512.39 1708.85 L 427.009 1708.85 L 427.009 1621.9 L 427.009 1616.52 C 426.386 1611.25 426.945 1594.79 426.997 1588.32 L 427.009 1536.02 L 555.795 1536.02 C 568.609 1535.98 584.077 1535.53 596.675 1536.02 z"></path>
  <path fill="#90481D" d="M 427.009 1536.02 L 555.795 1536.02 C 568.609 1535.98 584.077 1535.53 596.675 1536.02 L 596.675 1542.24 C 595.639 1567.18 596.889 1596.51 596.675 1621.9 L 555.795 1621.9 L 555.795 1621.9 L 555.795 1708.85 L 512.39 1708.85 L 427.009 1708.85 L 427.009 1621.9 L 427.009 1616.52 C 426.386 1611.25 426.945 1594.79 426.997 1588.32 L 427.009 1536.02 z"></path>
  <path fill="#FBD59F" d="M 555.795 1621.9 L 555.795 1621.9 L 555.795 1708.85 L 512.39 1708.85 C 510.28 1690.44 511.379 1641.1 512.39 1621.9 C 520.82 1621.21 547.211 1621.53 555.795 1621.9 z"></path>
  <path fill="#F8BA7B" d="M555.795 1536.02C568.609 1535.98 584.077 1535.53 596.675 1536.02L596.675 1542.24C595.639 1567.18 596.889 1596.51 596.675 1621.9L555.795 1621.9 555.795 1621.9 555.795 1621.9 555.795 1536.02zM427.009 1578.82C435.443 1578.78 462.86 1577.84 469.29 1578.82L469.29 1621.9 427.009 1621.9 427.009 1616.52C427.668 1604.13 426.954 1591.28 427.009 1578.82z"></path>
  <path fill="#90481D" d="M 596.675 1621.9 C 606.133 1621.9 680.102 1621.16 681.725 1621.9 L 681.725 1621.9 C 681.763 1646.01 683.169 1686.08 681.725 1708.85 L 555.795 1708.85 L 555.795 1621.9 L 555.795 1621.9 L 596.675 1621.9 z"></path>
  <path fill="#723816" d="M 596.675 1621.9 C 606.133 1621.9 680.102 1621.16 681.725 1621.9 C 681.266 1635.01 681.71 1650.79 681.725 1664.12 L 555.795 1664.12 L 555.795 1621.9 L 596.675 1621.9 z"></path>
  <path fill="#90481D" d="M 596.675 1536.02 L 677.716 1536.08 C 690.109 1536.16 712.448 1537.12 724.012 1536.02 L 724.012 1578.82 C 724.097 1592.89 724.426 1607.91 724.012 1621.9 C 718.077 1621.86 685.21 1621.22 681.725 1621.9 L 681.725 1621.9 C 680.102 1621.16 606.133 1621.9 596.675 1621.9 C 596.889 1596.51 595.639 1567.18 596.675 1542.24 L 596.675 1536.02 z"></path>
  <path fill="#522C17" d="M 596.675 1536.02 L 677.716 1536.08 C 690.109 1536.16 712.448 1537.12 724.012 1536.02 L 724.012 1578.82 C 681.818 1578.8 638.74 1579.37 596.675 1578.82 C 596.589 1572.68 597.973 1545.2 596.675 1542.24 L 596.675 1536.02 z"></path>
  <path fill="#90481D" d="M 939.124 1621.9 L 981.145 1621.9 L 981.145 1664.12 C 986.048 1664.06 992.435 1663.8 997.209 1664.12 C 990.61 1664.56 987.776 1664.59 981.145 1664.12 C 975.421 1663.32 946.347 1664.06 939.124 1664.12 L 939.124 1621.9 z"></path>
  <path fill="#90481D" d="M 1194.98 1494.03 C 1206.42 1493.88 1227.86 1493.13 1238.43 1494.03 L 1238.43 1536.02 C 1238.77 1544.7 1237.28 1573.47 1238.43 1578.82 C 1252.04 1578.13 1267.28 1578.87 1281.07 1578.82 C 1294.02 1578.74 1358.26 1576.4 1366.7 1578.82 L 1366.7 1664.12 L 1325.16 1664.12 L 1281.07 1664.12 C 1281.1 1678.31 1281.56 1694.85 1281.07 1708.85 L 1238.43 1708.85 C 1216.35 1710.19 1179.53 1708.79 1155.97 1708.8 L 981.145 1708.85 C 981.943 1698.09 981.168 1675.77 981.145 1664.12 C 987.776 1664.59 990.61 1664.56 997.209 1664.12 C 992.435 1663.8 986.048 1664.06 981.145 1664.12 L 981.145 1621.9 L 981.145 1542.24 L 981.145 1536.02 L 1194.98 1536.02 L 1194.98 1494.03 z"></path>
  <path fill="#723816" d="M 1194.98 1494.03 C 1206.42 1493.88 1227.86 1493.13 1238.43 1494.03 L 1238.43 1536.02 C 1238.77 1544.7 1237.28 1573.47 1238.43 1578.82 C 1252.04 1578.13 1267.28 1578.87 1281.07 1578.82 C 1294.02 1578.74 1358.26 1576.4 1366.7 1578.82 L 1366.7 1664.12 L 1325.16 1664.12 L 1281.07 1664.12 C 1281.1 1678.31 1281.56 1694.85 1281.07 1708.85 L 1238.43 1708.85 L 1238.43 1708.85 C 1239.8 1703.42 1238.46 1672.11 1238.43 1664.12 C 1226.79 1664.19 1205.69 1663.1 1194.98 1664.12 L 1194.98 1664.12 C 1195.51 1650.86 1195.07 1635.33 1194.98 1621.9 L 1194.98 1621.9 C 1194.88 1612.06 1190.91 1580.83 1201.02 1578.82 C 1196.09 1578.26 1183.01 1578.63 1177.6 1578.66 L 981.145 1578.82 C 981.694 1566.78 982.352 1554.22 981.145 1542.24 L 981.145 1536.02 L 1194.98 1536.02 L 1194.98 1494.03 z"></path>
  <path fill="#F0974C" d="M 1201.02 1578.82 C 1208.66 1578.67 1232.77 1577.16 1238.43 1578.82 L 1238.43 1621.9 L 1238.43 1664.12 C 1226.79 1664.19 1205.69 1663.1 1194.98 1664.12 L 1194.98 1664.12 C 1195.51 1650.86 1195.07 1635.33 1194.98 1621.9 L 1194.98 1621.9 C 1194.88 1612.06 1190.91 1580.83 1201.02 1578.82 z"></path>
  <path fill="#EC7913" d="M 1194.98 1621.9 C 1200.86 1622.96 1230.51 1621.8 1238.43 1621.9 L 1238.43 1664.12 C 1226.79 1664.19 1205.69 1663.1 1194.98 1664.12 L 1194.98 1664.12 C 1195.51 1650.86 1195.07 1635.33 1194.98 1621.9 L 1194.98 1621.9 z"></path>
  <path fill="#FBD59F" d="M 1325.16 1578.82 C 1337.68 1578.71 1354.92 1579.88 1366.7 1578.82 L 1366.7 1664.12 L 1325.16 1664.12 L 1325.16 1621.9 L 1325.16 1578.82 z"></path>
  <path fill="#522C17" d="M 1281.07 1578.82 C 1294.02 1578.74 1358.26 1576.4 1366.7 1578.82 C 1354.92 1579.88 1337.68 1578.71 1325.16 1578.82 L 1325.16 1621.9 L 1281.07 1621.9 C 1281.67 1606.42 1281.67 1594.21 1281.07 1578.82 z"></path>
  <path fill="#F8BA7B" d="M 1194.98 1494.03 C 1206.42 1493.88 1227.86 1493.13 1238.43 1494.03 L 1238.43 1536.02 C 1223.97 1536.09 1209.43 1536.24 1194.98 1536.02 L 1194.98 1494.03 z"></path>
  <path fill="#EC7913" d="M 1281.07 1621.9 L 1325.16 1621.9 L 1325.16 1664.12 L 1281.07 1664.12 C 1280.39 1653.99 1281.23 1633.41 1281.07 1621.9 z"></path>
  <path fill="#90481D" d="M 997.209 1664.12 L 1194.98 1664.12 L 1194.98 1664.12 C 1205.69 1663.1 1226.79 1664.19 1238.43 1664.12 C 1238.46 1672.11 1239.8 1703.42 1238.43 1708.85 L 1238.43 1708.85 C 1216.35 1710.19 1179.53 1708.79 1155.97 1708.8 L 981.145 1708.85 C 981.943 1698.09 981.168 1675.77 981.145 1664.12 C 987.776 1664.59 990.61 1664.56 997.209 1664.12 z"></path>
  <path fill="#F8BA7B" d="M 1194.98 1664.12 C 1205.69 1663.1 1226.79 1664.19 1238.43 1664.12 C 1238.46 1672.11 1239.8 1703.42 1238.43 1708.85 L 1194.98 1708.85 L 1194.98 1664.12 z"></path>
  <path fill="#723816" d="M 981.145 1621.9 L 1194.98 1621.9 C 1195.07 1635.33 1195.51 1650.86 1194.98 1664.12 L 997.209 1664.12 C 992.435 1663.8 986.048 1664.06 981.145 1664.12 L 981.145 1621.9 z"></path>
  <path fill="#B3D3C4" d="M 427.009 1449.65 L 1104.26 1449.64 C 1132.65 1449.63 1166.93 1448.73 1194.98 1449.65 L 1194.98 1494.03 C 1168.98 1493.06 1137.63 1494.02 1111.08 1494.03 L 427.009 1494.03 L 427.009 1449.65 z"></path>
  <path fill="#F8BA7B" d="M 1323.27 1279.99 L 1366.7 1279.99 L 1366.7 1494.03 L 1366.7 1536.02 L 1281.07 1536.02 C 1281.19 1507.35 1280.67 1478.2 1281.07 1449.65 L 1238.43 1449.65 L 1238.43 1406.96 C 1233.21 1407.81 1215.87 1407.12 1209.43 1407.07 L 1152.66 1406.96 L 1152.66 1364.82 L 1194.98 1364.82 L 1281.07 1364.82 C 1280.86 1350.76 1281 1336.69 1281.07 1322.63 C 1287.32 1321.82 1316.02 1322.08 1323.27 1322.63 L 1323.27 1279.99 z"></path>
  <path fill="#EC7913" d="M 1281.07 1449.65 C 1282.17 1460.29 1280.96 1482.25 1281.07 1494.03 L 1366.7 1494.03 L 1366.7 1536.02 L 1281.07 1536.02 C 1281.19 1507.35 1280.67 1478.2 1281.07 1449.65 z"></path>
  <path fill="#F0974C" d="M 1152.66 1364.82 L 1194.98 1364.82 C 1195.47 1378.93 1195.18 1392.84 1194.98 1406.96 C 1207.67 1406.95 1226.24 1406.31 1238.43 1406.96 C 1233.21 1407.81 1215.87 1407.12 1209.43 1407.07 L 1152.66 1406.96 L 1152.66 1364.82 z"></path>
  <path fill="#723816" d="M 1409.88 1578.82 C 1424.85 1578.74 1440.04 1578.53 1454.98 1578.82 L 1497.7 1578.82 C 1497.63 1588.09 1496.82 1613.65 1497.7 1621.9 L 1497.7 1664.12 L 1409.88 1664.12 C 1409 1656.7 1409.72 1642.99 1409.77 1635.01 L 1409.88 1578.82 z"></path>
  <path fill="#F8BA7B" d="M1454.98 1578.82 1497.7 1578.82C1497.63 1588.09 1496.82 1613.65 1497.7 1621.9 1484.17 1622.01 1468.04 1620.9 1454.98 1621.9 1454.98 1607.58 1454.59 1593.12 1454.98 1578.82zM679.004 296.02 811.011 296.02 811.011 342.748 811.011 342.748C821.973 342.675 843.191 341.906 853.393 342.748 853.601 356.707 853.668 372.25 853.393 386.258L1165.22 386.258 1165.22 342.748C1180.39 342.735 1208.61 341.879 1222.87 342.748 1227.49 342.467 1233.69 342.709 1238.43 342.748 1238.28 327.145 1238.08 311.625 1238.43 296.02L1366.7 296.02C1369.98 313.908 1369.89 324.429 1369.75 342.748L1415.61 342.748C1413.63 415.192 1417.67 492.612 1415.61 565.009L1369.75 565.009 1369.75 565.009C1368.2 631.086 1369.76 704.291 1369.75 770.991L1452.86 770.991 1452.86 813.117C1425.82 813.768 1396.98 813.122 1369.75 813.117L1369.75 897.71 1409.88 897.71C1409.8 912.775 1409.65 927.837 1409.88 942.901L1366.7 942.901C1367.96 926.353 1368.06 914.198 1366.7 897.71L1281.07 897.71C1280.1 911.313 1281.18 927.015 1281.07 940.956L1238.43 940.956C1238.53 947.371 1238.96 957.268 1238.43 963.364 1238.01 957.234 1238.37 947.371 1238.43 940.956L1152.66 940.956C1154.4 926.805 1153.5 911.925 1152.66 897.71 1126.94 894.797 1093.98 899.004 1067.05 897.71 1066.93 888.036 1068.24 863.317 1067.05 855.945 1053.12 855.888 1037.9 856.604 1024.13 855.945 1023.92 869.861 1024.06 883.791 1024.13 897.71L896.528 897.71C892.586 896.758 875.126 897.516 870.05 897.554L811.011 897.71 811.011 855.945 768.099 855.945C754.532 855.421 737.824 855.917 724.012 855.945L724.012 813.117 768.099 813.117 768.099 773.11C754.639 772.975 736.642 774.31 724.012 773.11L724.012 735.224 724.012 641.655 724.012 575.675C724.066 565.854 724.837 534.112 722.499 526.709L720.268 526.148C708.446 525.471 691.205 526.039 679.004 526.148L679.004 386.258C678.911 378.68 680.07 347.947 679.004 342.748L679.004 342.748C679.564 328.201 678.77 311.182 679.004 296.02z"></path>
  <path fill="#060505" d="M 679.004 296.02 L 811.011 296.02 L 811.011 342.748 L 811.011 342.748 C 821.973 342.675 843.191 341.906 853.393 342.748 C 853.601 356.707 853.668 372.25 853.393 386.258 L 1165.22 386.258 L 1165.22 342.748 C 1180.39 342.735 1208.61 341.879 1222.87 342.748 C 1228.79 343.018 1232.51 343.02 1238.43 342.748 C 1238.26 357.258 1238.36 371.747 1238.43 386.258 C 1224.52 386.059 1208.83 385.868 1194.98 386.258 L 1194.98 429.397 C 1188.77 430.292 1170.31 429.609 1162.86 429.527 L 1109.14 429.397 C 1109.15 440.514 1110.15 522.317 1107.63 525.802 L 1107.04 526.148 C 1097.53 525.699 1085.05 525.941 1075.56 526.148 C 1066.17 528.148 1034.93 526.589 1024.13 526.148 C 1007.25 527.564 954.948 527.902 939.124 526.148 L 936.289 526.148 C 922.863 528.274 852.534 527.883 835.562 526.148 L 768.099 526.148 L 768.099 526.148 C 761.35 526.205 728.882 527.052 724.673 524.997 L 724.012 520.646 C 722.427 525.075 723.47 524.341 720.268 526.148 C 708.446 525.471 691.205 526.039 679.004 526.148 L 679.004 386.258 C 678.911 378.68 680.07 347.947 679.004 342.748 L 679.004 342.748 C 679.564 328.201 678.77 311.182 679.004 296.02 z"></path>
  <path fill="#EC7913" d="M 1194.98 429.397 C 1188.77 430.292 1170.31 429.609 1162.86 429.527 L 1109.14 429.397 C 1109.15 440.514 1110.15 522.317 1107.63 525.802 L 1107.04 526.148 C 1097.53 525.699 1085.05 525.941 1075.56 526.148 C 1066.17 528.148 1034.93 526.589 1024.13 526.148 C 1007.25 527.564 954.948 527.902 939.124 526.148 C 939.723 521.393 939.232 501.451 939.211 495.267 L 939.124 429.397 L 981.145 429.397 L 1194.98 429.397 z"></path>
  <path fill="#FBD59F" d="M 939.124 429.397 L 981.145 429.397 L 981.145 526.148 L 1024.13 526.148 C 1025.01 517.997 1024.31 499.729 1024.23 490.61 L 1024.13 429.397 L 1067.05 429.397 C 1067.06 460.832 1067.53 493.821 1066.44 525.109 C 1069.35 526.533 1072.25 526.15 1075.56 526.148 C 1066.17 528.148 1034.93 526.589 1024.13 526.148 C 1007.25 527.564 954.948 527.902 939.124 526.148 C 939.723 521.393 939.232 501.451 939.211 495.267 L 939.124 429.397 z"></path>
  <path fill="url(#Gradient1)" d="M 679.004 386.258 L 724.012 386.258 C 723.988 391.982 723.344 426.684 724.012 429.397 C 737.741 429.351 754.627 428.83 768.099 429.397 C 768.122 436.018 769.023 466.991 768.099 470.822 L 768.099 470.822 C 768.143 483.055 769.12 516.088 768.099 526.148 C 761.35 526.205 728.882 527.052 724.673 524.997 L 724.012 520.646 C 722.427 525.075 723.47 524.341 720.268 526.148 C 708.446 525.471 691.205 526.039 679.004 526.148 L 679.004 386.258 z"></path>
  <path fill="#060505" d="M 724.012 470.822 C 734.235 470.923 759.455 469.721 768.099 470.822 L 768.099 470.822 C 768.143 483.055 769.12 516.088 768.099 526.148 C 761.35 526.205 728.882 527.052 724.673 524.997 L 724.012 520.646 C 724.972 512.395 724.059 480.105 724.012 470.822 z"></path>
  <path fill="#FBD59F" d="M 879.311 429.397 L 896.528 429.397 L 939.124 429.397 L 939.211 495.267 C 939.232 501.451 939.723 521.393 939.124 526.148 L 936.289 526.148 C 922.863 528.274 852.534 527.883 835.562 526.148 C 840.983 525.751 847.855 526.064 853.393 526.148 L 853.393 429.397 C 862.069 429.984 870.68 430.476 879.311 429.397 z"></path>
  <path fill="#EC7913" d="M 896.528 429.397 L 939.124 429.397 L 939.211 495.267 C 939.232 501.451 939.723 521.393 939.124 526.148 L 936.289 526.148 C 926.57 525.355 906.843 526.065 896.528 526.148 L 896.528 429.397 z"></path>
  <path fill="#F8BA7B" d="M 811.011 429.397 C 833.242 429.285 857.218 428.803 879.311 429.397 C 870.68 430.476 862.069 429.984 853.393 429.397 L 853.393 526.148 C 847.855 526.064 840.983 525.751 835.562 526.148 L 768.099 526.148 L 768.099 526.148 C 769.12 516.088 768.143 483.055 768.099 470.822 C 775.53 470.02 802.068 470.764 811.011 470.822 L 811.011 429.397 z"></path>
  <path fill="#060505" d="M 679.004 296.02 L 811.011 296.02 L 811.011 342.748 C 770.747 344.626 716.842 338.31 679.004 342.748 C 679.564 328.201 678.77 311.182 679.004 296.02 z"></path>
  <path fill="#3D3A3A" d="M 811.011 342.748 L 811.011 342.748 C 810.515 357.183 811.015 371.8 811.011 386.258 C 782.186 386.213 752.791 385.877 724.012 386.258 C 724.062 393.63 724.817 423.443 724.012 429.397 C 723.344 426.684 723.988 391.982 724.012 386.258 L 679.004 386.258 C 678.911 378.68 680.07 347.947 679.004 342.748 L 679.004 342.748 C 716.842 338.31 770.747 344.626 811.011 342.748 z"></path>
  <path fill="#FBD59F" d="M 724.012 735.224 L 768.099 735.224 L 768.099 753.997 C 773.544 753.383 789.12 753.868 795.207 753.884 L 853.393 753.997 C 853.671 747.71 853.49 741.514 853.393 735.224 L 965.803 735.256 C 984.493 735.266 1005.7 735.871 1024.13 735.224 C 1024.81 740.406 1025.72 749.129 1026.81 753.997 L 1135.67 753.997 C 1136.92 758.328 1135.95 768.074 1135.67 773.11 L 1109.14 773.11 C 1109.13 795.052 1107.59 835.963 1109.14 855.945 C 1102.29 855.932 1070.25 857.39 1067.05 855.945 L 1067.05 855.945 C 1053.12 855.888 1037.9 856.604 1024.13 855.945 C 1023.92 869.861 1024.06 883.791 1024.13 897.71 L 896.528 897.71 C 892.586 896.758 875.126 897.516 870.05 897.554 L 811.011 897.71 L 811.011 855.945 L 768.099 855.945 C 754.532 855.421 737.824 855.917 724.012 855.945 L 724.012 813.117 L 768.099 813.117 L 768.099 773.11 C 754.639 772.975 736.642 774.31 724.012 773.11 L 724.012 735.224 z"></path>
  <path fill="#060505" d="M896.528 855.945 1024.13 855.945C1023.92 869.861 1024.06 883.791 1024.13 897.71L896.528 897.71C896.431 884.108 897.346 869.33 896.528 855.945zM1024.13 813.117 1067.05 813.117C1067.15 827.218 1067.44 841.9 1067.05 855.945L1067.05 855.945C1053.12 855.888 1037.9 856.604 1024.13 855.945 1025.01 850.888 1024.37 819.493 1024.13 813.117zM939.124 773.11 986.674 773.11 986.674 813.117 939.124 813.117 939.124 773.11zM853.393 813.117 896.528 813.117C896.588 827.424 895.905 841.633 896.528 855.945 885.971 855.096 864.594 855.866 853.393 855.945L853.393 813.117z"></path>
  <path fill="#FEBDBA" d="M 1238.43 296.02 L 1366.7 296.02 C 1369.98 313.908 1369.89 324.429 1369.75 342.748 L 1415.61 342.748 C 1413.63 415.192 1417.67 492.612 1415.61 565.009 L 1369.75 565.009 L 1369.75 565.009 L 1325.16 565.009 C 1323.07 560.582 1323.33 532.543 1323.27 526.148 C 1311.24 526.703 1292.5 527.933 1281.07 526.148 L 1281.07 470.822 L 1281.07 465.193 C 1280.34 458.677 1280.99 437.034 1281.07 429.397 C 1267.51 429.335 1251.75 430.112 1238.43 429.397 C 1226.95 429.219 1204.63 430.711 1194.98 429.397 L 1194.98 429.397 L 1194.98 386.258 C 1208.83 385.868 1224.52 386.059 1238.43 386.258 C 1238.36 371.747 1238.26 357.258 1238.43 342.748 C 1232.51 343.02 1228.79 343.018 1222.87 342.748 C 1227.49 342.467 1233.69 342.709 1238.43 342.748 C 1238.28 327.145 1238.08 311.625 1238.43 296.02 z"></path>
  <path fill="#3D3A3A" d="M 1238.43 296.02 L 1366.7 296.02 C 1369.98 313.908 1369.89 324.429 1369.75 342.748 C 1369.25 352.958 1367.85 376.752 1369.75 386.258 L 1325.16 386.258 C 1325.45 396.842 1326.29 415.265 1325.16 425.038 L 1325.16 429.397 L 1281.07 429.397 C 1281.9 442.999 1282.15 451.388 1281.07 465.193 C 1280.34 458.677 1280.99 437.034 1281.07 429.397 C 1267.51 429.335 1251.75 430.112 1238.43 429.397 C 1226.95 429.219 1204.63 430.711 1194.98 429.397 L 1194.98 429.397 L 1194.98 386.258 C 1208.83 385.868 1224.52 386.059 1238.43 386.258 C 1238.36 371.747 1238.26 357.258 1238.43 342.748 C 1232.51 343.02 1228.79 343.018 1222.87 342.748 C 1227.49 342.467 1233.69 342.709 1238.43 342.748 C 1238.28 327.145 1238.08 311.625 1238.43 296.02 z"></path>
  <path fill="#060505" d="M1238.43 296.02 1366.7 296.02C1369.98 313.908 1369.89 324.429 1369.75 342.748 1331.61 341.882 1273.36 347.429 1238.43 342.748 1238.28 327.145 1238.08 311.625 1238.43 296.02zM1281.07 386.258 1325.16 386.258C1325.21 398.936 1324.48 412.476 1325.16 425.038L1325.16 429.397 1281.07 429.397 1281.07 386.258z"></path>
  <path fill="#B7B5B5" d="M 1194.98 386.258 L 1238.43 386.258 C 1238.33 396.89 1237.54 419.345 1238.43 429.397 C 1226.95 429.219 1204.63 430.711 1194.98 429.397 C 1195.15 415.677 1195.37 399.899 1194.98 386.258 z"></path>
  <path fill="#060505" d="M 1369.75 342.748 L 1415.61 342.748 C 1413.63 415.192 1417.67 492.612 1415.61 565.009 L 1369.75 565.009 L 1369.77 436.681 C 1369.78 428.526 1370.6 391.23 1369.75 386.258 C 1367.85 376.752 1369.25 352.958 1369.75 342.748 z"></path>
  <path fill="#FDE0CB" d="M 1281.07 429.397 L 1325.16 429.397 C 1326.14 437.416 1325.4 457.139 1325.31 466.007 L 1325.16 526.148 L 1281.07 526.148 L 1281.07 470.822 L 1281.07 465.193 C 1282.15 451.388 1281.9 442.999 1281.07 429.397 z"></path>
  <path fill="#060505" d="M 1325.16 565.009 L 1369.75 565.009 C 1368.2 631.086 1369.76 704.291 1369.75 770.991 L 1452.86 770.991 L 1452.86 813.117 C 1425.82 813.768 1396.98 813.122 1369.75 813.117 L 1369.75 897.71 L 1409.88 897.71 C 1409.8 912.775 1409.65 927.837 1409.88 942.901 L 1366.7 942.901 C 1367.96 926.353 1368.06 914.198 1366.7 897.71 L 1281.07 897.71 C 1280.1 911.313 1281.18 927.015 1281.07 940.956 L 1238.43 940.956 C 1237.73 913.715 1238.41 883.433 1238.43 855.945 L 1238.43 855.945 C 1239.79 848.651 1237.61 819.37 1238.43 808.369 L 1239.63 810.894 C 1249.66 813.909 1269.88 813.161 1281.07 813.117 C 1281 800.853 1280.5 784.867 1283 773.11 L 1325.16 773.11 C 1325.07 761.423 1324.92 749.724 1325.16 738.04 L 1325.16 733.212 C 1325.96 722.157 1325.2 700.989 1325.16 689.167 C 1325.08 648.475 1326.1 605.448 1325.16 565.009 z"></path>
  <path fill="#EC7913" d="M 1238.43 855.945 C 1239.79 848.651 1237.61 819.37 1238.43 808.369 L 1239.63 810.894 C 1249.66 813.909 1269.88 813.161 1281.07 813.117 C 1295.79 812.878 1310.44 813.017 1325.16 813.117 L 1325.16 855.945 C 1296.56 854.951 1266.93 854.695 1238.43 855.945 L 1238.43 855.945 z"></path>
  <path fill="#3D1413" d="M 1325.16 738.04 C 1326.79 742.175 1325.44 855.373 1325.16 855.945 L 1325.16 813.117 C 1310.44 813.017 1295.79 812.878 1281.07 813.117 C 1281 800.853 1280.5 784.867 1283 773.11 L 1325.16 773.11 C 1325.07 761.423 1324.92 749.724 1325.16 738.04 z"></path>
  <path fill="#FDE0CB" d="M 720.268 526.148 C 723.47 524.341 722.427 525.075 724.012 520.646 L 724.673 524.997 C 728.882 527.052 761.35 526.205 768.099 526.148 L 768.099 526.148 L 835.562 526.148 C 852.534 527.883 922.863 528.274 936.289 526.148 L 939.124 526.148 C 954.948 527.902 1007.25 527.564 1024.13 526.148 C 1034.93 526.589 1066.17 528.148 1075.56 526.148 C 1085.05 525.941 1097.53 525.699 1107.04 526.148 C 1110.96 530.427 1109.18 567.947 1109.14 575.675 C 1085.73 574.903 1058.67 575.662 1034.93 575.669 L 889.483 575.675 C 836.862 576.477 776.752 576.587 724.012 575.675 C 724.066 565.854 724.837 534.112 722.499 526.709 L 720.268 526.148 z"></path>
  <path fill="#FEBDBA" d="M 720.268 526.148 C 723.47 524.341 722.427 525.075 724.012 520.646 L 724.673 524.997 C 728.882 527.052 761.35 526.205 768.099 526.148 L 768.099 526.148 C 767.775 542.504 768.028 559.283 768.099 575.675 L 848.961 575.593 C 859.377 575.583 879.736 574.941 889.483 575.675 C 836.862 576.477 776.752 576.587 724.012 575.675 C 724.066 565.854 724.837 534.112 722.499 526.709 L 720.268 526.148 z"></path>
  <path fill="#060505" d="M 1109.14 641.655 C 1119.19 642.135 1125.66 642.251 1135.67 641.655 C 1135.63 654.394 1137.33 686.476 1135.67 696.187 C 1135.72 708.646 1136.72 743.644 1135.67 753.997 L 1026.81 753.997 C 1027.6 747.158 1026.89 726.155 1026.87 718.079 L 1026.81 641.655 L 1109.14 641.655 z"></path>
  <path fill="#F8F8F7" d="M 1109.14 641.655 C 1119.19 642.135 1125.66 642.251 1135.67 641.655 C 1135.63 654.394 1137.33 686.476 1135.67 696.187 L 1081.3 696.187 C 1081.11 681.99 1081.27 667.513 1081.3 653.293 C 1095.22 652.884 1108.01 659.277 1109.14 641.655 z"></path>
  <path fill="#060505" d="M 724.012 641.655 L 768.099 641.655 C 781.136 641.62 798.316 641.054 811.011 641.655 C 810.977 650.141 810.22 690.771 811.011 696.187 C 822.385 695.734 830.311 695.392 841.707 696.187 C 845.548 696.205 849.571 696.294 853.393 696.187 L 853.393 735.224 C 853.49 741.514 853.671 747.71 853.393 753.997 L 795.207 753.884 C 789.12 753.868 773.544 753.383 768.099 753.997 L 768.099 735.224 L 724.012 735.224 L 724.012 641.655 z"></path>
  <path fill="#CB570D" d="M724.012 641.655 768.099 641.655C767.343 672.109 768.168 704.574 768.099 735.224L724.012 735.224 724.012 641.655zM1194.98 855.945C1210.31 855.019 1223.22 855.37 1238.43 855.945L1238.43 855.945C1238.41 883.433 1237.73 913.715 1238.43 940.956 1238.53 947.371 1238.96 957.268 1238.43 963.364 1238.01 957.234 1238.37 947.371 1238.43 940.956L1152.66 940.956C1154.4 926.805 1153.5 911.925 1152.66 897.71 1166.56 898.002 1181.03 897.764 1194.98 897.71L1194.98 855.945z"></path>
  <path fill="#060505" d="M 1194.98 470.822 L 1238.43 470.822 L 1238.43 526.148 L 1194.98 526.148 C 1195.09 508.533 1194.04 488.041 1194.98 470.822 z"></path>
  <path fill="#F8F8F7" d="M 811.011 641.655 C 824.816 641.264 839.583 640.99 853.393 641.655 L 853.393 696.187 C 849.598 696.133 845.46 695.959 841.707 696.187 C 830.311 695.392 822.385 695.734 811.011 696.187 C 811.871 679.032 810.918 659.133 811.011 641.655 z"></path>
  <path fill="#CB570D" d="M 1281.07 689.167 L 1325.16 689.167 C 1325.2 700.989 1325.96 722.157 1325.16 733.212 L 1323.27 733.212 C 1317.65 732.409 1288.47 733.158 1281.07 733.212 L 1281.07 689.167 z"></path>
  <path fill="#060505" d="M 1238.43 429.397 C 1251.75 430.112 1267.51 429.335 1281.07 429.397 C 1280.99 437.034 1280.34 458.677 1281.07 465.193 L 1281.07 470.822 L 1238.43 470.822 C 1238.01 457.722 1238.4 442.647 1238.43 429.397 z"></path>
  <path fill="#FBD59F" d="M 1323.27 733.212 L 1325.16 733.212 L 1325.16 738.04 C 1324.92 749.724 1325.07 761.423 1325.16 773.11 L 1283 773.11 L 1281.07 773.11 C 1281.94 758.308 1282.07 747.846 1281.07 733.212 C 1296.48 734.093 1307.74 734.373 1323.27 733.212 z"></path>
  <path fill="#CB570D" d="M 1238.43 773.11 L 1281.07 773.11 L 1283 773.11 C 1280.5 784.867 1281 800.853 1281.07 813.117 C 1269.88 813.161 1249.66 813.909 1239.63 810.894 L 1238.43 808.369 C 1238.85 796.844 1238.54 784.688 1238.43 773.11 z"></path>
  <path fill="#060505" d="M 635.522 342.748 C 646.969 341.029 667.251 341.961 679.004 342.748 C 680.07 347.947 678.911 378.68 679.004 386.258 L 679.004 526.148 C 691.205 526.039 708.446 525.471 720.268 526.148 L 722.499 526.709 C 724.837 534.112 724.066 565.854 724.012 575.675 L 724.012 641.655 L 724.012 735.224 L 724.012 773.11 C 736.642 774.31 754.639 772.975 768.099 773.11 L 768.099 813.117 L 724.012 813.117 L 724.012 855.945 C 737.824 855.917 754.532 855.421 768.099 855.945 L 768.099 897.71 L 768.099 897.71 L 657.638 897.734 C 641.754 897.752 613.102 898.782 598.032 897.71 L 598.032 855.945 C 625.639 856.248 654.02 855.863 681.725 855.945 C 681.783 841.577 681.164 827.535 681.725 813.117 L 555.795 813.117 C 555.893 799.203 555.01 784.789 555.795 770.991 L 681.725 770.991 C 680.461 757.672 681.728 718.082 681.737 702.875 L 681.725 565.009 L 635.522 565.009 C 636.042 491.717 634.099 415.594 635.522 342.748 z"></path>
  <path fill="#522C17" d="M 1588.98 808.369 C 1627.75 807.852 1667.77 808.357 1706.63 808.369 C 1706.82 811.467 1706.66 815.681 1706.63 818.86 C 1707.08 830.239 1706.76 842.034 1706.63 853.451 C 1717.67 853.386 1741.25 852.423 1751.05 853.451 L 1751.05 942.901 C 1739.77 943.846 1718.45 943.289 1706.63 942.901 C 1706.09 958.07 1706.52 974.646 1706.63 989.927 L 1666.04 989.927 L 1634.68 989.927 L 1632.96 989.4 L 1631.85 986.025 C 1617.79 985.949 1602.96 985.651 1588.98 986.025 L 1588.98 986.025 C 1576.74 985.93 1556.26 987.135 1545.07 986.025 L 1545.07 942.901 C 1545.03 928.179 1545.67 912.31 1545.07 897.71 L 1545.07 897.71 C 1545.9 887.697 1545.07 864.633 1545.07 853.451 L 1588.98 853.451 C 1586.44 840.962 1587.97 821.283 1588.98 808.369 z"></path>
  <path fill="#522C17" d="M 1545.07 897.71 C 1552.55 897.651 1578.19 896.92 1584.2 897.71 L 1588.98 897.71 C 1592.33 897.047 1626.92 897.232 1631.85 897.71 L 1631.85 942.901 L 1631.85 986.025 C 1617.79 985.949 1602.96 985.651 1588.98 986.025 L 1588.98 986.025 C 1576.74 985.93 1556.26 987.135 1545.07 986.025 L 1545.07 942.901 C 1545.03 928.179 1545.67 912.31 1545.07 897.71 L 1545.07 897.71 z"></path>
  <path fill="#90481D" d="M 1588.98 942.901 L 1588.98 942.901 C 1603.51 942.483 1617.3 942.67 1631.85 942.901 L 1631.85 986.025 C 1617.79 985.949 1602.96 985.651 1588.98 986.025 L 1588.98 986.025 C 1576.74 985.93 1556.26 987.135 1545.07 986.025 L 1545.07 942.901 L 1588.98 942.901 z"></path>
  <path fill="#F8BA7B" d="M 1588.98 942.901 C 1603.51 942.483 1617.3 942.67 1631.85 942.901 L 1631.85 986.025 C 1617.79 985.949 1602.96 985.651 1588.98 986.025 C 1588.24 978.509 1588.45 950.586 1588.98 942.901 z"></path>
  <path fill="#90481D" d="M 1588.98 897.71 C 1592.33 897.047 1626.92 897.232 1631.85 897.71 L 1631.85 942.901 C 1617.3 942.67 1603.51 942.483 1588.98 942.901 L 1588.98 942.901 C 1589.52 929.515 1588.73 912.127 1588.98 897.71 z"></path>
  <path fill="#060505" d="M1588.98 808.369C1627.75 807.852 1667.77 808.357 1706.63 808.369 1706.82 811.467 1706.66 815.681 1706.63 818.86 1705.43 831.362 1705.82 840.899 1706.63 853.451L1588.98 853.451C1589.03 861.195 1592.58 895.957 1584.2 897.71 1578.19 896.92 1552.55 897.651 1545.07 897.71 1545.9 887.697 1545.07 864.633 1545.07 853.451L1588.98 853.451C1586.44 840.962 1587.97 821.283 1588.98 808.369zM1706.63 853.451C1717.22 854.008 1741.04 854.912 1751.05 853.451L1751.05 942.901C1739.77 943.846 1718.45 943.289 1706.63 942.901L1706.63 942.901C1706.79 930.033 1707.46 910.049 1706.63 897.71 1705.01 885.413 1706.01 866.092 1706.63 853.451z"></path>
  <path fill="#522C17" d="M 1631.85 942.901 L 1706.63 942.901 L 1706.63 942.901 L 1706.63 942.901 C 1706.09 958.07 1706.52 974.646 1706.63 989.927 L 1666.04 989.927 L 1634.68 989.927 L 1632.96 989.4 L 1631.85 986.025 L 1631.85 942.901 z"></path>
  <path fill="#723816" d="M 1631.85 942.901 L 1706.63 942.901 C 1702.61 944.477 1674.03 942.761 1666.04 942.901 C 1665.96 956.839 1665.29 976.426 1666.04 989.927 L 1634.68 989.927 L 1632.96 989.4 L 1631.85 986.025 L 1631.85 942.901 z"></path>
  <path fill="#F8BA7B" d="M 1631.85 897.71 L 1706.63 897.71 C 1707.46 910.049 1706.79 930.033 1706.63 942.901 L 1706.63 942.901 L 1631.85 942.901 L 1631.85 897.71 z"></path>
  <path fill="#060505" d="M1502.87 897.71C1516.82 897.802 1531.17 898.059 1545.07 897.71 1545.67 912.31 1545.03 928.179 1545.07 942.901L1545.07 986.025C1537.11 985.674 1506.64 987.697 1502.87 983.359 1503.57 976.9 1502.98 961.709 1502.94 954.428L1502.87 897.71zM555.795 897.71C567.317 896.972 586.486 897.123 598.032 897.71L598.032 942.901C582.703 942.437 571.022 942.336 555.795 942.901 555.938 928.918 554.567 910.901 555.795 897.71z"></path>
  <path fill="#90481D" d="M 1588.98 986.025 C 1602.96 985.651 1617.79 985.949 1631.85 986.025 L 1632.96 989.4 L 1634.68 989.927 L 1632.58 991.074 C 1631.19 996.315 1631.77 1017.97 1631.85 1025.02 C 1617.55 1024.91 1603.19 1025.97 1588.98 1025.02 L 1588.98 1025.02 L 1588.98 986.025 L 1588.98 986.025 z"></path>
</svg>
